<?xml version="1.0" encoding="UTF-8" standalone="no"?>
<!-- Created with Inkscape (http://www.inkscape.org/) -->

<svg
   width="48mm"
   height="14mm"
   viewBox="0 0 181.41768 52.913355"
   version="1.1"
   id="svg1"
   inkscape:version="1.1.2 (0a00cf5339, 2022-02-04)"
   sodipodi:docname="biosc-1630-logo.svg"
   xml:space="preserve"
   inkscape:export-filename="biosc-1630-logo.png"
   inkscape:export-xdpi="600"
   inkscape:export-ydpi="600"
   xmlns:inkscape="http://www.inkscape.org/namespaces/inkscape"
   xmlns:sodipodi="http://sodipodi.sourceforge.net/DTD/sodipodi-0.dtd"
   xmlns="http://www.w3.org/2000/svg"
   xmlns:svg="http://www.w3.org/2000/svg"><sodipodi:namedview
     id="namedview1"
     pagecolor="#ffffff"
     bordercolor="#000000"
     borderopacity="0.25"
     inkscape:showpageshadow="2"
     inkscape:pageopacity="0.0"
     inkscape:pagecheckerboard="0"
     inkscape:deskcolor="#d1d1d1"
     inkscape:document-units="mm"
     inkscape:zoom="4"
     inkscape:cx="113.625"
     inkscape:cy="43.625"
     inkscape:window-width="1874"
     inkscape:window-height="1016"
     inkscape:window-x="46"
     inkscape:window-y="787"
     inkscape:window-maximized="1"
     inkscape:current-layer="text3"
     showguides="true"
     inkscape:pageshadow="2"
     showgrid="false" /><defs
     id="defs1"><rect
       x="135.78906"
       y="170.14297"
       width="162.15329"
       height="174.63954"
       id="rect1" /></defs><g
     inkscape:groupmode="layer"
     id="layer2"
     inkscape:label="Cathy"><g
       id="g29"
       transform="translate(-18.616019,-29.844561)"><path
         style="opacity:1;fill:none;fill-opacity:1;stroke:#003594;stroke-width:0.266667;stroke-linecap:round;stroke-linejoin:round;stroke-dasharray:none;stroke-opacity:1"
         d="m 36.667355,66.393586 v -1.496474 l 1.658027,-0.26475 2.767784,-1.078141 1.093952,0.625376 1.185692,-0.02044 0.375241,0.546874 0.501339,-0.04345 0.215095,0.198342 h 1.405598 l 0.03733,1.569404 z"
         id="path4" /><path
         style="opacity:1;fill:none;fill-opacity:1;stroke:#003594;stroke-width:0.266667;stroke-linecap:round;stroke-linejoin:round;stroke-dasharray:none;stroke-opacity:1"
         d="m 38.615761,64.492274 -0.04654,-2.48582 1.500511,-0.0958 -0.0072,-5.237795 1.301464,-0.157065 1.15168,-0.531362 0.792591,0.343046 0.305851,-0.380776 0.322316,0.321864 0.984996,-0.109383 0.02518,0.526599 0.677247,0.462423 0.0258,7.68255"
         id="path5" /><path
         style="opacity:1;fill:none;fill-opacity:1;stroke:#003594;stroke-width:0.266667;stroke-linecap:round;stroke-linejoin:round;stroke-dasharray:none;stroke-opacity:1"
         d="m 40.612286,56.593783 -0.0081,-5.248154 0.471505,-0.250322 -0.06525,-4.354035 0.381859,-0.148037 -0.05073,-1.403013 0.446713,-0.118971 -0.02346,-0.700299 0.51611,-0.366156 3.243351,-0.753791 0.419788,0.361275 -0.03356,22.822132"
         id="path6"
         sodipodi:nodetypes="cccccccccccc" /><path
         style="opacity:1;fill:none;fill-opacity:1;stroke:#003594;stroke-width:0.266667;stroke-linecap:round;stroke-linejoin:round;stroke-dasharray:none;stroke-opacity:1"
         d="M 42.127705,44.049591 V 42.68651 l 0.357959,-0.175171 v -3.052596 l 0.244206,-0.09198 v -0.983002 l 0.181343,-0.296237 0.339542,0.157554 0.1488,-0.312102 0.421383,0.307908 1.234047,-0.39521 -0.03073,-0.321085 0.469047,-0.428581 0.196514,0.342356 0.278431,-0.293266 0.85273,0.902127 -0.03406,1.499745 0.592796,0.06296 0.94783,1.238561 -0.04666,5.104792 0.387188,0.209545 -0.01311,1.917145 0.2883,0.22713 -0.03645,1.425485 1.015347,0.05768 0.916626,1.506285 v 11.273339 h 1.762249 l 0.611656,0.719538 v 3.161219 L 36.68707,66.390189"
         id="path7"
         sodipodi:nodetypes="ccccccccccccccccccccccccccccccc" /><path
         style="opacity:1;fill:none;fill-opacity:1;stroke:#003594;stroke-width:0.266667;stroke-linecap:round;stroke-linejoin:round;stroke-dasharray:none;stroke-opacity:1"
         d="M 49.264441,49.758788 V 66.359073"
         id="path8" /><path
         style="opacity:1;fill:none;fill-opacity:1;stroke:#003594;stroke-width:0.266667;stroke-linecap:round;stroke-linejoin:round;stroke-dasharray:none;stroke-opacity:1"
         d="m 51.195179,62.571521 -1.479129,0.01135 v 3.770975"
         id="path9"
         sodipodi:nodetypes="ccc" /><path
         style="opacity:1;fill:none;fill-opacity:1;stroke:#003594;stroke-width:0.266667;stroke-linecap:round;stroke-linejoin:round;stroke-dasharray:none;stroke-opacity:1"
         d="M 48.871452,49.716445 H 46.712405 V 66.408266"
         id="path10" /><path
         style="opacity:1;fill:none;fill-opacity:1;stroke:#003594;stroke-width:0.266667;stroke-linecap:round;stroke-linejoin:round;stroke-dasharray:none;stroke-opacity:1"
         d="m 40.443072,66.312311 0.02424,-1.012259 0.924811,-0.632656 1.086744,0.994853 0.01064,0.714467"
         id="path11" /><path
         style="opacity:1;fill:none;fill-opacity:1;stroke:#003594;stroke-width:0.266667;stroke-linecap:round;stroke-linejoin:round;stroke-dasharray:none;stroke-opacity:1"
         d="m 41.416682,63.695862 -0.0165,-5.700141 c 0.366117,-0.794594 0.708168,-1.078526 1.045684,-1.266231 0.463438,0.257646 0.834159,0.581505 0.921353,1.107839 l -0.0088,6.285425"
         id="path12"
         sodipodi:nodetypes="ccccc" /><path
         style="opacity:1;fill:none;fill-opacity:1;stroke:#003594;stroke-width:0.266667;stroke-linecap:round;stroke-linejoin:round;stroke-dasharray:none;stroke-opacity:1"
         d="m 42.856262,56.026219 -0.03514,-10.095001 c 0.237841,-0.659761 0.677837,-1.602409 0.858519,-1.650823 0.194132,0.05202 0.635903,0.781451 0.830109,1.32027 l 0.01605,10.568404"
         id="path13"
         sodipodi:nodetypes="ccccc" /><path
         style="opacity:1;fill:none;fill-opacity:1;stroke:#003594;stroke-width:0.266667;stroke-linecap:round;stroke-linejoin:round;stroke-dasharray:none;stroke-opacity:1"
         d="m 43.623573,43.609848 0.0072,-2.529144 0.638504,-0.813629 0.787903,0.629882 v 2.403147"
         id="path14"
         sodipodi:nodetypes="ccccc" /><path
         style="opacity:1;fill:none;fill-opacity:1;stroke:#003594;stroke-width:0.266667;stroke-linecap:round;stroke-linejoin:round;stroke-dasharray:none;stroke-opacity:1"
         d="m 44.924302,56.277572 0.0018,-10.548799 c 0.230446,-0.753507 0.425477,-0.829521 0.572632,0.01034 v 11.290895"
         id="path15"
         sodipodi:nodetypes="cccc" /><path
         style="opacity:1;fill:none;fill-opacity:1;stroke:#003594;stroke-width:0.266667;stroke-linecap:round;stroke-linejoin:round;stroke-dasharray:none;stroke-opacity:1"
         d="m 41.817131,56.290187 v -9.759916 c 0.115818,-0.307229 0.209419,-0.934333 0.411469,0 v 9.566656"
         id="path16"
         sodipodi:nodetypes="cccc" /><path
         style="opacity:1;fill:none;fill-opacity:1;stroke:#003594;stroke-width:0.266667;stroke-linecap:round;stroke-linejoin:round;stroke-dasharray:none;stroke-opacity:1"
         d="M 47.108659,66.327263 V 50.644767 c 0.235743,-0.460248 0.483263,-0.756307 0.806268,0 v 15.741798"
         id="path17"
         sodipodi:nodetypes="cccc"
         transform="translate(-0.03437564)" /><path
         style="opacity:1;fill:none;fill-opacity:1;stroke:#003594;stroke-width:0.266667;stroke-linecap:round;stroke-linejoin:round;stroke-dasharray:none;stroke-opacity:1"
         d="M 48.272678,66.352023 V 50.552298 c 0.219383,-0.369846 0.436097,-0.768536 0.760771,0 v 15.808246"
         id="path18"
         sodipodi:nodetypes="cccc"
         transform="translate(-0.06898817)" /><path
         style="opacity:1;fill:none;fill-opacity:1;stroke:#003594;stroke-width:0.266667;stroke-linecap:round;stroke-linejoin:round;stroke-dasharray:none;stroke-opacity:1"
         d="m 45.798382,43.434058 -0.0077,-6.033892"
         id="path19"
         sodipodi:nodetypes="cc" /><path
         style="opacity:1;fill:none;fill-opacity:1;stroke:#003594;stroke-width:0.266667;stroke-linecap:round;stroke-linejoin:round;stroke-dasharray:none;stroke-opacity:1"
         d="M 40.442899,63.720695 V 57.29599 c 0.09844,-0.152155 0.283962,-0.564556 0.446204,-0.02726 l 0.01915,6.294162"
         id="path20"
         sodipodi:nodetypes="cccc"
         transform="translate(0.06502618)" /><path
         style="opacity:1;fill:none;fill-opacity:1;stroke:#003594;stroke-width:0.266667;stroke-linecap:round;stroke-linejoin:round;stroke-dasharray:none;stroke-opacity:1"
         d="m 43.956045,64.6366 v -7.567529 c 0.110092,-0.390383 0.242461,-0.532995 0.435576,0 v 7.650596"
         id="path21"
         sodipodi:nodetypes="cccc" /><path
         style="opacity:1;fill:none;fill-opacity:1;stroke:#003594;stroke-width:0.266667;stroke-linecap:round;stroke-linejoin:round;stroke-dasharray:none;stroke-opacity:1"
         d="m 46.68351,48.927257 v -7.073855 c 0.369054,-0.535848 0.709259,-0.801285 0.909661,0.243743 v 6.931986"
         id="path22"
         sodipodi:nodetypes="cccc" /><path
         style="opacity:1;fill:none;fill-opacity:1;stroke:#003594;stroke-width:0.266667;stroke-linecap:round;stroke-linejoin:round;stroke-dasharray:none;stroke-opacity:1"
         d="m 37.181681,66.351047 v -0.760821 c 0.15294,-0.205357 0.313018,-0.378471 0.59519,0 v 0.79544"
         id="path23"
         sodipodi:nodetypes="cccc" /><path
         style="opacity:1;fill:none;fill-opacity:1;stroke:#003594;stroke-width:0.266667;stroke-linecap:round;stroke-linejoin:round;stroke-dasharray:none;stroke-opacity:1"
         d="m 45.008244,66.376818 v -0.733619 c 0.164979,-0.218639 0.331724,-0.424544 0.585929,0 v 0.784775"
         id="path24"
         sodipodi:nodetypes="cccc" /><path
         style="opacity:1;fill:none;fill-opacity:1;stroke:#003594;stroke-width:0.266667;stroke-linecap:round;stroke-linejoin:round;stroke-dasharray:none;stroke-opacity:1"
         d="M 38.414124,66.347321 V 64.647489"
         id="path25" /><path
         style="opacity:1;fill:none;fill-opacity:1;stroke:#003594;stroke-width:0.266667;stroke-linecap:round;stroke-linejoin:round;stroke-dasharray:none;stroke-opacity:1"
         d="m 40.018241,66.356454 v -2.34128"
         id="path26" /><path
         style="opacity:1;fill:none;fill-opacity:1;stroke:#003594;stroke-width:0.266667;stroke-linecap:round;stroke-linejoin:round;stroke-dasharray:none;stroke-opacity:1"
         d="M 43.106857,66.379798 V 64.229241"
         id="path27" /><path
         style="opacity:1;fill:none;fill-opacity:1;stroke:#003594;stroke-width:0.266667;stroke-linecap:round;stroke-linejoin:round;stroke-dasharray:none;stroke-opacity:1"
         d="M 44.521493,66.388714 V 64.860378"
         id="path28" /><path
         style="opacity:1;fill:none;fill-opacity:1;stroke:#003594;stroke-width:0.266667;stroke-linecap:round;stroke-linejoin:round;stroke-dasharray:none;stroke-opacity:1"
         d="m 43.678802,38.316328 0.05595,1.013554 1.253963,-0.375413 0.0168,-1.062133"
         id="path29" /></g></g><g
     inkscape:label="Layer 1"
     inkscape:groupmode="layer"
     id="layer1"><text
       xml:space="preserve"
       id="text1"
       style="font-size:8px;font-family:sans-serif;-inkscape-font-specification:sans-serif;text-align:center;white-space:pre;shape-inside:url(#rect1);display:inline;fill:#808080;stroke-width:0.0590008;stroke-linecap:round;stroke-linejoin:round" /><g
       aria-label="B"
       transform="translate(-292.27009,-287.25572)"
       id="text2"
       style="font-size:32px;-inkscape-font-specification:sans-serif;text-align:center;text-anchor:middle;fill:#003594;stroke-width:0.0590008;stroke-linecap:round;stroke-linejoin:round"><path
         d="m 300.68394,301.0924 q 4.288,0 6.464,1.28 2.208,1.248 2.208,4.384 0,2.016 -1.12,3.36 -1.12,1.312 -3.232,1.696 v 0.16 q 1.44,0.224 2.592,0.832 1.184,0.608 1.856,1.728 0.672,1.12 0.672,2.912 0,3.104 -2.144,4.8 -2.112,1.696 -5.792,1.696 h -8.032 v -22.848 z m 0.576,9.728 q 2.944,0 4.032,-0.928 1.088,-0.96 1.088,-2.816 0,-1.888 -1.344,-2.688 -1.312,-0.832 -4.224,-0.832 h -3.776 v 7.264 z m -4.224,2.4 v 8.288 h 4.608 q 3.04,0 4.224,-1.184 1.184,-1.184 1.184,-3.104 0,-1.792 -1.248,-2.88 -1.216,-1.12 -4.384,-1.12 z"
         style="font-family:'Noto Sans';-inkscape-font-specification:'Noto Sans'"
         id="path915" /></g><g
       aria-label="OSC"
       transform="translate(-237.33369,-286.83384)"
       id="text2-4-5"
       style="font-size:32px;-inkscape-font-specification:sans-serif;text-align:center;text-anchor:middle;fill:#003594;stroke-width:0.0590008;stroke-linecap:round;stroke-linejoin:round"><path
         d="m 293.09997,312.4844 q 0,3.552 -1.216,6.208 -1.184,2.624 -3.52,4.096 -2.336,1.472 -5.792,1.472 -3.552,0 -5.92,-1.472 -2.336,-1.472 -3.488,-4.128 -1.152,-2.656 -1.152,-6.208 0,-3.52 1.152,-6.144 1.152,-2.624 3.488,-4.096 2.368,-1.472 5.952,-1.472 3.424,0 5.76,1.472 2.336,1.44 3.52,4.096 1.216,2.624 1.216,6.176 z m -18.048,0 q 0,4.32 1.824,6.816 1.824,2.464 5.696,2.464 3.904,0 5.696,-2.464 1.792,-2.496 1.792,-6.816 0,-4.32 -1.792,-6.752 -1.792,-2.464 -5.664,-2.464 -3.872,0 -5.728,2.464 -1.824,2.432 -1.824,6.752 z"
         style="font-family:'Noto Sans';-inkscape-font-specification:'Noto Sans'"
         id="path908" /><path
         d="m 311.11591,317.8284 q 0,3.04 -2.208,4.736 -2.208,1.696 -5.952,1.696 -1.92,0 -3.552,-0.288 -1.632,-0.288 -2.72,-0.8 v -2.752 q 1.152,0.512 2.848,0.928 1.728,0.416 3.552,0.416 2.56,0 3.84,-0.992 1.312,-0.992 1.312,-2.688 0,-1.12 -0.48,-1.888 -0.48,-0.768 -1.664,-1.408 -1.152,-0.672 -3.232,-1.408 -2.912,-1.056 -4.416,-2.592 -1.472,-1.536 -1.472,-4.192 0,-1.824 0.928,-3.104 0.928,-1.312 2.56,-2.016 1.664,-0.704 3.808,-0.704 1.888,0 3.456,0.352 1.568,0.352 2.848,0.928 l -0.896,2.464 q -1.184,-0.512 -2.592,-0.864 -1.376,-0.352 -2.88,-0.352 -2.144,0 -3.232,0.928 -1.088,0.896 -1.088,2.4 0,1.152 0.48,1.92 0.48,0.768 1.568,1.376 1.088,0.608 2.944,1.312 2.016,0.736 3.392,1.6 1.408,0.832 2.112,2.016 0.736,1.184 0.736,2.976 z"
         style="font-family:'Noto Sans';-inkscape-font-specification:'Noto Sans'"
         id="path910" /><path
         d="m 325.5159,303.3004 q -3.68,0 -5.792,2.464 -2.112,2.464 -2.112,6.752 0,4.256 1.952,6.752 1.984,2.464 5.92,2.464 1.504,0 2.848,-0.256 1.344,-0.256 2.624,-0.64 v 2.496 q -1.28,0.48 -2.656,0.704 -1.344,0.224 -3.232,0.224 -3.488,0 -5.824,-1.44 -2.336,-1.44 -3.52,-4.096 -1.152,-2.656 -1.152,-6.24 0,-3.456 1.248,-6.08 1.28,-2.656 3.744,-4.128 2.464,-1.504 5.984,-1.504 3.616,0 6.304,1.344 l -1.152,2.432 q -1.056,-0.48 -2.368,-0.864 -1.28,-0.384 -2.816,-0.384 z"
         style="font-family:'Noto Sans';-inkscape-font-specification:'Noto Sans'"
         id="path912" /></g><g
       aria-label="1630"
       id="text3"
       style="font-size:32px;-inkscape-font-specification:sans-serif;text-align:center;text-anchor:middle;fill:#ffb81c;stroke-width:0.0590008;stroke-linecap:round;stroke-linejoin:round"><path
         d="m 106.73952,37.106556 h -2.752 v -15.968 q 0,-1.376 0.032,-2.208 0.032,-0.832 0.096,-1.728 -0.512,0.512 -0.928,0.864 -0.416,0.352 -1.056,0.896 l -2.432003,1.984 -1.472,-1.888 6.176003,-4.8 h 2.336 z"
         style="font-family:'Noto Sans';-inkscape-font-specification:'Noto Sans'"
         id="path899" /><path
         d="m 115.44347,27.346556 q 0,-2.464 0.416,-4.832 0.448,-2.4 1.568,-4.32 1.152,-1.952 3.2,-3.104 2.048,-1.152 5.28,-1.152 0.672,0 1.472,0.064 0.832,0.064 1.344,0.224 v 2.4 q -0.576,-0.192 -1.312,-0.288 -0.704,-0.096 -1.44,-0.096 -2.208,0 -3.68,0.736 -1.472,0.736 -2.336,2.016 -0.832,1.28 -1.216,2.944 -0.384,1.664 -0.48,3.552 h 0.192 q 0.736,-1.12 2.048,-1.888 1.312,-0.8 3.36,-0.8 2.976,0 4.8,1.824 1.824,1.792 1.824,5.12 0,3.584 -1.984,5.632 -1.952,2.048 -5.28,2.048 -2.176,0 -3.936,-1.088 -1.76,-1.088 -2.816,-3.328 -1.024,-2.24 -1.024,-5.664 z m 7.744,7.712 q 2.016,0 3.264,-1.28 1.248,-1.312 1.248,-4.032 0,-2.176 -1.12,-3.456 -1.088,-1.28 -3.296,-1.28 -1.504,0 -2.624,0.64 -1.12,0.608 -1.76,1.568 -0.608,0.96 -0.608,1.984 0,1.376 0.544,2.752 0.544,1.344 1.632,2.24 1.088,0.864 2.72,0.864 z"
         style="font-family:'Noto Sans';-inkscape-font-specification:'Noto Sans'"
         id="path901" /><path
         d="m 147.76343,19.602556 q 0,2.304 -1.28,3.68 -1.28,1.344 -3.456,1.792 v 0.128 q 2.752,0.32 4.096,1.728 1.344,1.408 1.344,3.68 0,1.984 -0.928,3.552 -0.928,1.536 -2.88,2.4 -1.92,0.864 -4.96,0.864 -1.792,0 -3.328,-0.288 -1.536,-0.256 -2.944,-0.96 v -2.624 q 1.44,0.704 3.104,1.12 1.664,0.384 3.2,0.384 3.072,0 4.416,-1.184 1.376,-1.216 1.376,-3.328 0,-2.144 -1.696,-3.072 -1.664,-0.96 -4.704,-0.96 h -2.208 v -2.4 h 2.24 q 2.816,0 4.256,-1.184 1.472,-1.184 1.472,-3.136 0,-1.664 -1.12,-2.56 -1.12,-0.928 -3.04,-0.928 -1.856,0 -3.168,0.544 -1.312,0.544 -2.592,1.376 l -1.408,-1.92 q 1.216,-0.96 3.008,-1.664 1.824,-0.704 4.128,-0.704 3.584,0 5.312,1.6 1.76,1.6 1.76,4.064 z"
         style="font-family:'Noto Sans';-inkscape-font-specification:'Noto Sans'"
         id="path903" /><path
         d="m 167.02738,25.650556 q 0,3.68 -0.768,6.336 -0.768,2.624 -2.432,4.032 -1.664,1.408 -4.416,1.408 -3.872,0 -5.728,-3.104 -1.824,-3.136 -1.824,-8.672 0,-3.712 0.736,-6.336 0.768,-2.624 2.432,-4 1.664,-1.408 4.384,-1.408 3.84,0 5.728,3.104 1.888,3.072 1.888,8.64 z m -12.352,0 q 0,4.704 1.056,7.04 1.088,2.336 3.68,2.336 2.56,0 3.648,-2.304 1.12,-2.336 1.12,-7.072 0,-4.672 -1.12,-7.008 -1.088,-2.336 -3.648,-2.336 -2.592,0 -3.68,2.336 -1.056,2.336 -1.056,7.008 z"
         style="font-family:'Noto Sans';-inkscape-font-specification:'Noto Sans'"
         id="path905" /></g><path
       style="fill:none;fill-opacity:1;stroke:#003594;stroke-width:1.88976;stroke-linecap:round;stroke-linejoin:round;stroke-dasharray:none;stroke-opacity:1"
       d="m 106.09512,71.024884 v 7.559055 h 90.2967 V 32.473702 h -90.2967 v 7.559055"
       id="path3"
       sodipodi:nodetypes="cccccc"
       transform="translate(-18.616019,-29.844561)" /></g></svg>
