<?xml version="1.0" encoding="UTF-8" standalone="no"?>
<!-- Created with Inkscape (http://www.inkscape.org/) -->

<svg
   width="48mm"
   height="14mm"
   viewBox="0 0 181.41768 52.913355"
   version="1.1"
   id="svg1"
   inkscape:version="1.3 (1:1.3+202307231459+0e150ed6c4)"
   sodipodi:docname="biosc-1630-logo.svg"
   xml:space="preserve"
   inkscape:export-filename="biosc-1630-logo.png"
   inkscape:export-xdpi="600"
   inkscape:export-ydpi="600"
   xmlns:inkscape="http://www.inkscape.org/namespaces/inkscape"
   xmlns:sodipodi="http://sodipodi.sourceforge.net/DTD/sodipodi-0.dtd"
   xmlns="http://www.w3.org/2000/svg"
   xmlns:svg="http://www.w3.org/2000/svg"><sodipodi:namedview
     id="namedview1"
     pagecolor="#ffffff"
     bordercolor="#000000"
     borderopacity="0.25"
     inkscape:showpageshadow="2"
     inkscape:pageopacity="0.0"
     inkscape:pagecheckerboard="0"
     inkscape:deskcolor="#d1d1d1"
     inkscape:document-units="mm"
     inkscape:zoom="4"
     inkscape:cx="113.75"
     inkscape:cy="43.625"
     inkscape:window-width="1920"
     inkscape:window-height="1043"
     inkscape:window-x="1920"
     inkscape:window-y="0"
     inkscape:window-maximized="1"
     inkscape:current-layer="layer2"
     showguides="true" /><defs
     id="defs1"><rect
       x="135.78906"
       y="170.14297"
       width="162.15329"
       height="174.63954"
       id="rect1" /></defs><g
     inkscape:groupmode="layer"
     id="layer2"
     inkscape:label="Cathy"><g
       id="g29"
       transform="translate(-18.616019,-29.844561)"><path
         style="opacity:1;fill:none;fill-opacity:1;stroke:#003594;stroke-width:0.266667;stroke-linecap:round;stroke-linejoin:round;stroke-dasharray:none;stroke-opacity:1"
         d="m 36.667355,66.393586 v -1.496474 l 1.658027,-0.26475 2.767784,-1.078141 1.093952,0.625376 1.185692,-0.02044 0.375241,0.546874 0.501339,-0.04345 0.215095,0.198342 h 1.405598 l 0.03733,1.569404 z"
         id="path4" /><path
         style="opacity:1;fill:none;fill-opacity:1;stroke:#003594;stroke-width:0.266667;stroke-linecap:round;stroke-linejoin:round;stroke-dasharray:none;stroke-opacity:1"
         d="m 38.615761,64.492274 -0.04654,-2.48582 1.500511,-0.0958 -0.0072,-5.237795 1.301464,-0.157065 1.15168,-0.531362 0.792591,0.343046 0.305851,-0.380776 0.322316,0.321864 0.984996,-0.109383 0.02518,0.526599 0.677247,0.462423 0.0258,7.68255"
         id="path5" /><path
         style="opacity:1;fill:none;fill-opacity:1;stroke:#003594;stroke-width:0.266667;stroke-linecap:round;stroke-linejoin:round;stroke-dasharray:none;stroke-opacity:1"
         d="m 40.612286,56.593783 -0.0081,-5.248154 0.471505,-0.250322 -0.06525,-4.354035 0.381859,-0.148037 -0.05073,-1.403013 0.446713,-0.118971 -0.02346,-0.700299 0.51611,-0.366156 3.243351,-0.753791 0.419788,0.361275 -0.03356,22.822132"
         id="path6"
         sodipodi:nodetypes="cccccccccccc" /><path
         style="opacity:1;fill:none;fill-opacity:1;stroke:#003594;stroke-width:0.266667;stroke-linecap:round;stroke-linejoin:round;stroke-dasharray:none;stroke-opacity:1"
         d="M 42.127705,44.049591 V 42.68651 l 0.357959,-0.175171 v -3.052596 l 0.244206,-0.09198 v -0.983002 l 0.181343,-0.296237 0.339542,0.157554 0.1488,-0.312102 0.421383,0.307908 1.234047,-0.39521 -0.03073,-0.321085 0.469047,-0.428581 0.196514,0.342356 0.278431,-0.293266 0.85273,0.902127 -0.03406,1.499745 0.592796,0.06296 0.94783,1.238561 -0.04666,5.104792 0.387188,0.209545 -0.01311,1.917145 0.2883,0.22713 -0.03645,1.425485 1.015347,0.05768 0.916626,1.506285 v 11.273339 h 1.762249 l 0.611656,0.719538 v 3.161219 L 36.68707,66.390189"
         id="path7"
         sodipodi:nodetypes="ccccccccccccccccccccccccccccccc" /><path
         style="opacity:1;fill:none;fill-opacity:1;stroke:#003594;stroke-width:0.266667;stroke-linecap:round;stroke-linejoin:round;stroke-dasharray:none;stroke-opacity:1"
         d="M 49.264441,49.758788 V 66.359073"
         id="path8" /><path
         style="opacity:1;fill:none;fill-opacity:1;stroke:#003594;stroke-width:0.266667;stroke-linecap:round;stroke-linejoin:round;stroke-dasharray:none;stroke-opacity:1"
         d="m 51.195179,62.571521 -1.479129,0.01135 v 3.770975"
         id="path9"
         sodipodi:nodetypes="ccc" /><path
         style="opacity:1;fill:none;fill-opacity:1;stroke:#003594;stroke-width:0.266667;stroke-linecap:round;stroke-linejoin:round;stroke-dasharray:none;stroke-opacity:1"
         d="M 48.871452,49.716445 H 46.712405 V 66.408266"
         id="path10" /><path
         style="opacity:1;fill:none;fill-opacity:1;stroke:#003594;stroke-width:0.266667;stroke-linecap:round;stroke-linejoin:round;stroke-dasharray:none;stroke-opacity:1"
         d="m 40.443072,66.312311 0.02424,-1.012259 0.924811,-0.632656 1.086744,0.994853 0.01064,0.714467"
         id="path11" /><path
         style="opacity:1;fill:none;fill-opacity:1;stroke:#003594;stroke-width:0.266667;stroke-linecap:round;stroke-linejoin:round;stroke-dasharray:none;stroke-opacity:1"
         d="m 41.416682,63.695862 -0.0165,-5.700141 c 0.366117,-0.794594 0.708168,-1.078526 1.045684,-1.266231 0.463438,0.257646 0.834159,0.581505 0.921353,1.107839 l -0.0088,6.285425"
         id="path12"
         sodipodi:nodetypes="ccccc" /><path
         style="opacity:1;fill:none;fill-opacity:1;stroke:#003594;stroke-width:0.266667;stroke-linecap:round;stroke-linejoin:round;stroke-dasharray:none;stroke-opacity:1"
         d="m 42.856262,56.026219 -0.03514,-10.095001 c 0.237841,-0.659761 0.677837,-1.602409 0.858519,-1.650823 0.194132,0.05202 0.635903,0.781451 0.830109,1.32027 l 0.01605,10.568404"
         id="path13"
         sodipodi:nodetypes="ccccc" /><path
         style="opacity:1;fill:none;fill-opacity:1;stroke:#003594;stroke-width:0.266667;stroke-linecap:round;stroke-linejoin:round;stroke-dasharray:none;stroke-opacity:1"
         d="m 43.623573,43.609848 0.0072,-2.529144 0.638504,-0.813629 0.787903,0.629882 v 2.403147"
         id="path14"
         sodipodi:nodetypes="ccccc" /><path
         style="opacity:1;fill:none;fill-opacity:1;stroke:#003594;stroke-width:0.266667;stroke-linecap:round;stroke-linejoin:round;stroke-dasharray:none;stroke-opacity:1"
         d="m 44.924302,56.277572 0.0018,-10.548799 c 0.230446,-0.753507 0.425477,-0.829521 0.572632,0.01034 v 11.290895"
         id="path15"
         sodipodi:nodetypes="cccc" /><path
         style="opacity:1;fill:none;fill-opacity:1;stroke:#003594;stroke-width:0.266667;stroke-linecap:round;stroke-linejoin:round;stroke-dasharray:none;stroke-opacity:1"
         d="m 41.817131,56.290187 v -9.759916 c 0.115818,-0.307229 0.209419,-0.934333 0.411469,0 v 9.566656"
         id="path16"
         sodipodi:nodetypes="cccc" /><path
         style="opacity:1;fill:none;fill-opacity:1;stroke:#003594;stroke-width:0.266667;stroke-linecap:round;stroke-linejoin:round;stroke-dasharray:none;stroke-opacity:1"
         d="M 47.108659,66.327263 V 50.644767 c 0.235743,-0.460248 0.483263,-0.756307 0.806268,0 v 15.741798"
         id="path17"
         sodipodi:nodetypes="cccc"
         transform="translate(-0.03437564)" /><path
         style="opacity:1;fill:none;fill-opacity:1;stroke:#003594;stroke-width:0.266667;stroke-linecap:round;stroke-linejoin:round;stroke-dasharray:none;stroke-opacity:1"
         d="M 48.272678,66.352023 V 50.552298 c 0.219383,-0.369846 0.436097,-0.768536 0.760771,0 v 15.808246"
         id="path18"
         sodipodi:nodetypes="cccc"
         transform="translate(-0.06898817)" /><path
         style="opacity:1;fill:none;fill-opacity:1;stroke:#003594;stroke-width:0.266667;stroke-linecap:round;stroke-linejoin:round;stroke-dasharray:none;stroke-opacity:1"
         d="m 45.798382,43.434058 -0.0077,-6.033892"
         id="path19"
         sodipodi:nodetypes="cc" /><path
         style="opacity:1;fill:none;fill-opacity:1;stroke:#003594;stroke-width:0.266667;stroke-linecap:round;stroke-linejoin:round;stroke-dasharray:none;stroke-opacity:1"
         d="M 40.442899,63.720695 V 57.29599 c 0.09844,-0.152155 0.283962,-0.564556 0.446204,-0.02726 l 0.01915,6.294162"
         id="path20"
         sodipodi:nodetypes="cccc"
         transform="translate(0.06502618)" /><path
         style="opacity:1;fill:none;fill-opacity:1;stroke:#003594;stroke-width:0.266667;stroke-linecap:round;stroke-linejoin:round;stroke-dasharray:none;stroke-opacity:1"
         d="m 43.956045,64.6366 v -7.567529 c 0.110092,-0.390383 0.242461,-0.532995 0.435576,0 v 7.650596"
         id="path21"
         sodipodi:nodetypes="cccc" /><path
         style="opacity:1;fill:none;fill-opacity:1;stroke:#003594;stroke-width:0.266667;stroke-linecap:round;stroke-linejoin:round;stroke-dasharray:none;stroke-opacity:1"
         d="m 46.68351,48.927257 v -7.073855 c 0.369054,-0.535848 0.709259,-0.801285 0.909661,0.243743 v 6.931986"
         id="path22"
         sodipodi:nodetypes="cccc" /><path
         style="opacity:1;fill:none;fill-opacity:1;stroke:#003594;stroke-width:0.266667;stroke-linecap:round;stroke-linejoin:round;stroke-dasharray:none;stroke-opacity:1"
         d="m 37.181681,66.351047 v -0.760821 c 0.15294,-0.205357 0.313018,-0.378471 0.59519,0 v 0.79544"
         id="path23"
         sodipodi:nodetypes="cccc" /><path
         style="opacity:1;fill:none;fill-opacity:1;stroke:#003594;stroke-width:0.266667;stroke-linecap:round;stroke-linejoin:round;stroke-dasharray:none;stroke-opacity:1"
         d="m 45.008244,66.376818 v -0.733619 c 0.164979,-0.218639 0.331724,-0.424544 0.585929,0 v 0.784775"
         id="path24"
         sodipodi:nodetypes="cccc" /><path
         style="opacity:1;fill:none;fill-opacity:1;stroke:#003594;stroke-width:0.266667;stroke-linecap:round;stroke-linejoin:round;stroke-dasharray:none;stroke-opacity:1"
         d="M 38.414124,66.347321 V 64.647489"
         id="path25" /><path
         style="opacity:1;fill:none;fill-opacity:1;stroke:#003594;stroke-width:0.266667;stroke-linecap:round;stroke-linejoin:round;stroke-dasharray:none;stroke-opacity:1"
         d="m 40.018241,66.356454 v -2.34128"
         id="path26" /><path
         style="opacity:1;fill:none;fill-opacity:1;stroke:#003594;stroke-width:0.266667;stroke-linecap:round;stroke-linejoin:round;stroke-dasharray:none;stroke-opacity:1"
         d="M 43.106857,66.379798 V 64.229241"
         id="path27" /><path
         style="opacity:1;fill:none;fill-opacity:1;stroke:#003594;stroke-width:0.266667;stroke-linecap:round;stroke-linejoin:round;stroke-dasharray:none;stroke-opacity:1"
         d="M 44.521493,66.388714 V 64.860378"
         id="path28" /><path
         style="opacity:1;fill:none;fill-opacity:1;stroke:#003594;stroke-width:0.266667;stroke-linecap:round;stroke-linejoin:round;stroke-dasharray:none;stroke-opacity:1"
         d="m 43.678802,38.316328 0.05595,1.013554 1.253963,-0.375413 0.0168,-1.062133"
         id="path29" /></g></g><g
     inkscape:label="Layer 1"
     inkscape:groupmode="layer"
     id="layer1"><text
       xml:space="preserve"
       id="text1"
       style="font-size:8px;font-family:sans-serif;-inkscape-font-specification:sans-serif;text-align:center;white-space:pre;shape-inside:url(#rect1);display:inline;fill:#808080;stroke-width:0.0590008;stroke-linecap:round;stroke-linejoin:round" /><text
       xml:space="preserve"
       style="font-size:32px;font-family:sans-serif;-inkscape-font-specification:sans-serif;text-align:center;text-anchor:middle;fill:#003594;fill-opacity:1;stroke-width:0.0590008;stroke-linecap:round;stroke-linejoin:round"
       x="301.45193"
       y="323.9404"
       id="text2"
       transform="translate(-292.27009,-287.25572)"><tspan
         sodipodi:role="line"
         id="tspan2"
         x="301.45193"
         y="323.9404"
         style="font-style:normal;font-variant:normal;font-weight:normal;font-stretch:normal;font-size:32px;font-family:'Noto Sans';-inkscape-font-specification:'Noto Sans';fill:#003594;fill-opacity:1">B</tspan></text><text
       xml:space="preserve"
       style="font-size:32px;font-family:sans-serif;-inkscape-font-specification:sans-serif;text-align:center;text-anchor:middle;fill:#003594;fill-opacity:1;stroke-width:0.0590008;stroke-linecap:round;stroke-linejoin:round"
       x="301.45193"
       y="323.9404"
       id="text2-4-5"
       transform="translate(-237.33369,-286.83384)"><tspan
         sodipodi:role="line"
         id="tspan2-9-8"
         x="301.45193"
         y="323.9404"
         style="font-style:normal;font-variant:normal;font-weight:normal;font-stretch:normal;font-size:32px;font-family:'Noto Sans';-inkscape-font-specification:'Noto Sans';fill:#003594;fill-opacity:1">OSC</tspan></text><text
       xml:space="preserve"
       style="font-size:32px;font-family:sans-serif;-inkscape-font-specification:sans-serif;text-align:center;text-anchor:middle;fill:#ffb81c;fill-opacity:1;stroke-width:0.0590008;stroke-linecap:round;stroke-linejoin:round"
       x="391.16528"
       y="329.32587"
       id="text3"
       transform="translate(-259.75062,-292.21931)"><tspan
         sodipodi:role="line"
         id="tspan3"
         x="391.16528"
         y="329.32587"
         style="font-style:normal;font-variant:normal;font-weight:normal;font-stretch:normal;font-family:'Noto Sans';-inkscape-font-specification:'Noto Sans'">1630</tspan></text><path
       style="fill:none;fill-opacity:1;stroke:#003594;stroke-width:1.88976;stroke-linecap:round;stroke-linejoin:round;stroke-dasharray:none;stroke-opacity:1"
       d="m 106.09512,71.024884 v 7.559055 h 90.2967 V 32.473702 h -90.2967 v 7.559055"
       id="path3"
       sodipodi:nodetypes="cccccc"
       transform="translate(-18.616019,-29.844561)" /></g></svg>
